<svg width="272" height="164" viewBox="0 0 272 164" fill="none" xmlns="http://www.w3.org/2000/svg">
<path d="M49.4328 102.58H45.1828C45.0616 101.883 44.8381 101.265 44.5123 100.727C44.1866 100.182 43.7813 99.7197 43.2964 99.3409C42.8116 98.9621 42.2585 98.678 41.6373 98.4886C41.0237 98.2917 40.3608 98.1932 39.6487 98.1932C38.3835 98.1932 37.2623 98.5114 36.2851 99.1477C35.3078 99.7765 34.5426 100.701 33.9896 101.92C33.4366 103.133 33.1601 104.614 33.1601 106.364C33.1601 108.144 33.4366 109.644 33.9896 110.864C34.5502 112.076 35.3154 112.992 36.2851 113.614C37.2623 114.227 38.3798 114.534 39.6373 114.534C40.3343 114.534 40.9858 114.443 41.5919 114.261C42.2055 114.072 42.7548 113.795 43.2396 113.432C43.732 113.068 44.1449 112.621 44.4782 112.091C44.8191 111.561 45.054 110.955 45.1828 110.273L49.4328 110.295C49.2737 111.402 48.929 112.439 48.3987 113.409C47.876 114.379 47.1904 115.235 46.3419 115.977C45.4934 116.712 44.501 117.288 43.3646 117.705C42.2282 118.114 40.9669 118.318 39.5805 118.318C37.5351 118.318 35.7093 117.845 34.1032 116.898C32.4972 115.951 31.232 114.583 30.3078 112.795C29.3835 111.008 28.9214 108.864 28.9214 106.364C28.9214 103.856 29.3873 101.712 30.3191 99.9318C31.251 98.1439 32.5199 96.7765 34.126 95.8295C35.732 94.8826 37.5502 94.4091 39.5805 94.4091C40.876 94.4091 42.0805 94.5909 43.1941 94.9545C44.3078 95.3182 45.3002 95.8523 46.1714 96.5568C47.0426 97.2538 47.7585 98.1098 48.3191 99.125C48.8873 100.133 49.2585 101.284 49.4328 102.58ZM56.9054 94.7273V118H52.7918V94.7273H56.9054ZM68.4291 118.341C66.7246 118.341 65.2473 117.966 63.9973 117.216C62.7473 116.466 61.7776 115.417 61.0882 114.068C60.4064 112.72 60.0655 111.144 60.0655 109.341C60.0655 107.538 60.4064 105.958 61.0882 104.602C61.7776 103.246 62.7473 102.193 63.9973 101.443C65.2473 100.693 66.7246 100.318 68.4291 100.318C70.1337 100.318 71.611 100.693 72.861 101.443C74.111 102.193 75.0769 103.246 75.7587 104.602C76.4481 105.958 76.7928 107.538 76.7928 109.341C76.7928 111.144 76.4481 112.72 75.7587 114.068C75.0769 115.417 74.111 116.466 72.861 117.216C71.611 117.966 70.1337 118.341 68.4291 118.341ZM68.4519 115.045C69.3761 115.045 70.1488 114.792 70.7701 114.284C71.3913 113.769 71.8534 113.08 72.1564 112.216C72.467 111.352 72.6223 110.39 72.6223 109.33C72.6223 108.261 72.467 107.295 72.1564 106.432C71.8534 105.561 71.3913 104.867 70.7701 104.352C70.1488 103.837 69.3761 103.58 68.4519 103.58C67.5049 103.58 66.717 103.837 66.0882 104.352C65.467 104.867 65.0011 105.561 64.6905 106.432C64.3875 107.295 64.236 108.261 64.236 109.33C64.236 110.39 64.3875 111.352 64.6905 112.216C65.0011 113.08 65.467 113.769 66.0882 114.284C66.717 114.792 67.5049 115.045 68.4519 115.045ZM91.0893 110.659V100.545H95.2029V118H91.2143V114.898H91.0324C90.6385 115.875 89.9908 116.674 89.0893 117.295C88.1953 117.917 87.093 118.227 85.7824 118.227C84.6385 118.227 83.6271 117.973 82.7484 117.466C81.8771 116.951 81.1953 116.205 80.7029 115.227C80.2105 114.242 79.9643 113.053 79.9643 111.659V100.545H84.0779V111.023C84.0779 112.129 84.3809 113.008 84.987 113.659C85.593 114.311 86.3885 114.636 87.3734 114.636C87.9794 114.636 88.5665 114.489 89.1347 114.193C89.7029 113.898 90.1688 113.458 90.5324 112.875C90.9037 112.284 91.0893 111.545 91.0893 110.659ZM105.59 118.307C104.219 118.307 102.992 117.955 101.908 117.25C100.825 116.545 99.9691 115.523 99.3403 114.182C98.7115 112.841 98.3971 111.212 98.3971 109.295C98.3971 107.356 98.7153 105.72 99.3516 104.386C99.9956 103.045 100.863 102.034 101.954 101.352C103.045 100.663 104.261 100.318 105.602 100.318C106.624 100.318 107.465 100.492 108.124 100.841C108.783 101.182 109.306 101.595 109.693 102.08C110.079 102.557 110.378 103.008 110.59 103.432H110.761V94.7273H114.886V118H110.84V115.25H110.59C110.378 115.674 110.071 116.125 109.67 116.602C109.268 117.072 108.738 117.473 108.079 117.807C107.42 118.14 106.59 118.307 105.59 118.307ZM106.738 114.932C107.609 114.932 108.352 114.697 108.965 114.227C109.579 113.75 110.045 113.087 110.363 112.239C110.681 111.39 110.84 110.402 110.84 109.273C110.84 108.144 110.681 107.163 110.363 106.33C110.052 105.496 109.59 104.848 108.977 104.386C108.371 103.924 107.624 103.693 106.738 103.693C105.821 103.693 105.056 103.932 104.443 104.409C103.829 104.886 103.367 105.545 103.056 106.386C102.746 107.227 102.59 108.189 102.59 109.273C102.59 110.364 102.746 111.337 103.056 112.193C103.374 113.042 103.84 113.712 104.454 114.205C105.075 114.689 105.836 114.932 106.738 114.932ZM118.108 98.2614V94.7273H136.677V98.2614H129.483V118H125.302V98.2614H118.108ZM137.942 118V100.545H141.93V103.455H142.112C142.43 102.447 142.976 101.67 143.749 101.125C144.529 100.572 145.419 100.295 146.419 100.295C146.646 100.295 146.9 100.307 147.18 100.33C147.468 100.345 147.707 100.371 147.896 100.409V104.193C147.722 104.133 147.446 104.08 147.067 104.034C146.696 103.981 146.336 103.955 145.987 103.955C145.237 103.955 144.563 104.117 143.964 104.443C143.374 104.761 142.908 105.205 142.567 105.773C142.226 106.341 142.055 106.996 142.055 107.739V118H137.942ZM155.019 118.352C153.913 118.352 152.917 118.155 152.031 117.761C151.152 117.36 150.455 116.769 149.94 115.989C149.432 115.208 149.179 114.246 149.179 113.102C149.179 112.117 149.36 111.303 149.724 110.659C150.088 110.015 150.584 109.5 151.213 109.114C151.841 108.727 152.55 108.436 153.338 108.239C154.133 108.034 154.955 107.886 155.804 107.795C156.826 107.689 157.656 107.595 158.292 107.511C158.929 107.42 159.391 107.284 159.679 107.102C159.974 106.913 160.122 106.621 160.122 106.227V106.159C160.122 105.303 159.868 104.64 159.36 104.17C158.853 103.701 158.122 103.466 157.167 103.466C156.16 103.466 155.36 103.686 154.769 104.125C154.186 104.564 153.792 105.083 153.588 105.682L149.747 105.136C150.05 104.076 150.55 103.189 151.247 102.477C151.944 101.758 152.796 101.22 153.804 100.864C154.811 100.5 155.925 100.318 157.144 100.318C157.985 100.318 158.823 100.417 159.656 100.614C160.489 100.811 161.251 101.136 161.94 101.591C162.629 102.038 163.182 102.648 163.599 103.42C164.023 104.193 164.235 105.159 164.235 106.318V118H160.281V115.602H160.144C159.894 116.087 159.542 116.542 159.088 116.966C158.641 117.383 158.076 117.72 157.394 117.977C156.72 118.227 155.929 118.352 155.019 118.352ZM156.088 115.33C156.913 115.33 157.629 115.167 158.235 114.841C158.841 114.508 159.307 114.068 159.633 113.523C159.966 112.977 160.133 112.383 160.133 111.739V109.682C160.004 109.788 159.785 109.886 159.474 109.977C159.171 110.068 158.83 110.148 158.451 110.216C158.073 110.284 157.698 110.345 157.326 110.398C156.955 110.451 156.633 110.496 156.36 110.534C155.747 110.617 155.198 110.754 154.713 110.943C154.228 111.133 153.845 111.398 153.565 111.739C153.285 112.072 153.144 112.504 153.144 113.034C153.144 113.792 153.421 114.364 153.974 114.75C154.527 115.136 155.232 115.33 156.088 115.33ZM172.165 107.773V118H168.052V100.545H171.984V103.511H172.188C172.59 102.534 173.23 101.758 174.109 101.182C174.995 100.606 176.09 100.318 177.393 100.318C178.597 100.318 179.646 100.576 180.54 101.091C181.442 101.606 182.139 102.352 182.631 103.33C183.131 104.307 183.378 105.492 183.37 106.886V118H179.256V107.523C179.256 106.356 178.953 105.443 178.347 104.784C177.749 104.125 176.919 103.795 175.859 103.795C175.139 103.795 174.499 103.955 173.938 104.273C173.385 104.583 172.949 105.034 172.631 105.625C172.321 106.216 172.165 106.932 172.165 107.773ZM201.027 105.159L197.277 105.568C197.171 105.189 196.986 104.833 196.72 104.5C196.463 104.167 196.114 103.898 195.675 103.693C195.236 103.489 194.698 103.386 194.061 103.386C193.205 103.386 192.486 103.572 191.902 103.943C191.326 104.314 191.042 104.795 191.05 105.386C191.042 105.894 191.228 106.307 191.607 106.625C191.993 106.943 192.629 107.205 193.516 107.409L196.493 108.045C198.145 108.402 199.372 108.966 200.175 109.739C200.986 110.511 201.395 111.523 201.402 112.773C201.395 113.871 201.073 114.841 200.436 115.682C199.808 116.515 198.933 117.167 197.811 117.636C196.69 118.106 195.402 118.341 193.948 118.341C191.811 118.341 190.092 117.894 188.789 117C187.486 116.098 186.709 114.845 186.459 113.239L190.47 112.852C190.652 113.64 191.039 114.235 191.629 114.636C192.22 115.038 192.989 115.239 193.936 115.239C194.914 115.239 195.698 115.038 196.289 114.636C196.887 114.235 197.186 113.739 197.186 113.148C197.186 112.648 196.993 112.235 196.607 111.909C196.228 111.583 195.637 111.333 194.834 111.159L191.857 110.534C190.183 110.186 188.944 109.598 188.141 108.773C187.338 107.939 186.94 106.886 186.948 105.614C186.94 104.538 187.232 103.606 187.823 102.818C188.421 102.023 189.251 101.409 190.311 100.977C191.379 100.538 192.611 100.318 194.004 100.318C196.05 100.318 197.66 100.754 198.834 101.625C200.016 102.496 200.747 103.674 201.027 105.159ZM213.315 100.545V103.727H202.997V100.545H213.315ZM205.577 118V98.8977C205.577 97.7235 205.819 96.7462 206.304 95.9659C206.796 95.1856 207.455 94.6023 208.281 94.2159C209.107 93.8295 210.024 93.6364 211.031 93.6364C211.743 93.6364 212.376 93.6932 212.929 93.8068C213.482 93.9205 213.891 94.0227 214.156 94.1136L213.338 97.2955C213.164 97.2424 212.944 97.1894 212.679 97.1364C212.414 97.0758 212.118 97.0455 211.792 97.0455C211.027 97.0455 210.486 97.2311 210.167 97.6023C209.857 97.9659 209.702 98.4886 209.702 99.1705V118H205.577ZM223.288 118.341C221.538 118.341 220.026 117.977 218.754 117.25C217.489 116.515 216.515 115.477 215.833 114.136C215.151 112.788 214.811 111.201 214.811 109.375C214.811 107.58 215.151 106.004 215.833 104.648C216.523 103.284 217.485 102.223 218.72 101.466C219.954 100.701 221.405 100.318 223.072 100.318C224.148 100.318 225.163 100.492 226.117 100.841C227.079 101.182 227.928 101.712 228.663 102.432C229.405 103.152 229.989 104.068 230.413 105.182C230.837 106.288 231.049 107.606 231.049 109.136V110.398H216.742V107.625H227.106C227.098 106.837 226.928 106.136 226.595 105.523C226.261 104.902 225.795 104.413 225.197 104.057C224.606 103.701 223.917 103.523 223.129 103.523C222.288 103.523 221.549 103.727 220.913 104.136C220.276 104.538 219.78 105.068 219.424 105.727C219.076 106.379 218.898 107.095 218.89 107.875V110.295C218.89 111.311 219.076 112.182 219.447 112.909C219.818 113.629 220.337 114.182 221.004 114.568C221.67 114.947 222.451 115.136 223.345 115.136C223.943 115.136 224.485 115.053 224.97 114.886C225.454 114.712 225.875 114.458 226.231 114.125C226.587 113.792 226.856 113.379 227.038 112.886L230.879 113.318C230.636 114.333 230.174 115.22 229.492 115.977C228.818 116.727 227.954 117.311 226.901 117.727C225.848 118.136 224.644 118.341 223.288 118.341ZM234.209 118V100.545H238.198V103.455H238.38C238.698 102.447 239.243 101.67 240.016 101.125C240.796 100.572 241.687 100.295 242.687 100.295C242.914 100.295 243.168 100.307 243.448 100.33C243.736 100.345 243.974 100.371 244.164 100.409V104.193C243.99 104.133 243.713 104.08 243.334 104.034C242.963 103.981 242.603 103.955 242.255 103.955C241.505 103.955 240.83 104.117 240.232 104.443C239.641 104.761 239.175 105.205 238.834 105.773C238.493 106.341 238.323 106.996 238.323 107.739V118H234.209Z" fill="#5F6991"/>
<path opacity="0.36" d="M22.9145 146.899C-24.7015 85.9931 11.9159 -1.9559 103.045 2.1379C194.175 6.2317 191.48 75.3672 196.705 65.6662C250.186 57.761 267.229 98.4718 269.551 113.573C271.874 128.674 265.492 152.303 243.014 162" stroke="#AFBEF6" stroke-width="4" stroke-linecap="round" stroke-linejoin="round"/>
</svg>
